<?xml version="1.0" encoding="UTF-8"?>
<svg id="Layer_2" data-name="Layer 2" xmlns="http://www.w3.org/2000/svg" viewBox="0 0 490.48 213.71">
  <defs>
    <style>
      .cls-1 {
        fill: #fff;
      }

      .cls-1, .cls-2 {
        stroke-width: 0px;
      }

      .cls-2 {
        fill: #029962;
      }
    </style>
  </defs>
  <g id="Layer_1-2" data-name="Layer 1">
    <path class="cls-1" d="M147.77,152.3H61.6c-23.57,0-43.05-18.79-43.44-41.88-.19-11.53,4.15-22.4,12.22-30.61,8.08-8.21,18.87-12.73,30.38-12.73h1.63c23.21.33,41.99,19.31,41.99,42.59h16c0-29.72-22.24-54.33-50.95-58.09,3.59-20.19,21.38-35.58,42.73-35.58,23.76,0,43.08,19.33,43.08,43.08v8h8c14.79,0,27.25,10.16,30.77,23.86h16.33c-3.37-20.14-19.37-36.05-39.56-39.27C167.13,22.58,142.24,0,112.17,0s-55.2,22.52-58.92,51.56c-12.98,1.65-24.94,7.56-34.27,17.04C7.87,79.89,1.9,94.84,2.16,110.69c.53,31.77,27.19,57.61,59.44,57.61h100.16c-6.69-3.04-11.85-8.87-13.99-16Z"/>
    <g>
      <path class="cls-2" d="M210.39,135.86c0,20.72-9.76,31.09-29.29,31.09s-28.42-10.12-28.42-30.37v-39.84h15.77v40.04c0,11.16,4.41,16.75,13.24,16.75s12.99-5.39,12.99-16.17v-40.61h15.72v39.12Z"/>
      <path class="cls-2" d="M267.13,165.74h-41.56v-69.01h15.72v56.4h25.84v12.61Z"/>
      <path class="cls-2" d="M356.03,165.74h-15.52v-41.29c0-4.46.2-9.38.58-14.77h-.39c-.81,4.23-1.54,7.28-2.19,9.14l-16.35,46.92h-12.85l-16.64-46.44c-.45-1.25-1.18-4.46-2.19-9.62h-.44c.42,6.8.63,12.77.63,17.9v38.16h-14.16v-69.01h23.02l14.26,40.9c1.13,3.27,1.96,6.56,2.48,9.86h.29c.88-3.82,1.8-7.14,2.77-9.96l14.26-40.81h22.43v69.01Z"/>
      <path class="cls-2" d="M428.77,135.86c0,20.72-9.76,31.09-29.29,31.09s-28.42-10.12-28.42-30.37v-39.84h15.77v40.04c0,11.16,4.41,16.75,13.24,16.75s12.99-5.39,12.99-16.17v-40.61h15.72v39.12Z"/>
      <path class="cls-2" d="M440.74,163.09v-15.4c2.82,2.34,5.89,4.1,9.2,5.27,3.31,1.17,6.65,1.76,10.02,1.76,1.98,0,3.71-.18,5.18-.53,1.48-.35,2.71-.84,3.7-1.47.99-.63,1.73-1.36,2.21-2.21.49-.85.73-1.77.73-2.77,0-1.35-.39-2.55-1.17-3.61-.78-1.06-1.84-2.04-3.19-2.94-1.35-.9-2.94-1.76-4.79-2.6-1.85-.83-3.84-1.68-5.99-2.55-5.45-2.25-9.51-4.99-12.19-8.23-2.68-3.24-4.01-7.15-4.01-11.74,0-3.59.73-6.68,2.19-9.26,1.46-2.58,3.45-4.71,5.96-6.38,2.51-1.67,5.43-2.89,8.73-3.68,3.31-.79,6.81-1.18,10.51-1.18s6.85.22,9.66.65c2.81.43,5.39,1.1,7.76,2v14.39c-1.17-.8-2.44-1.51-3.82-2.12-1.38-.61-2.8-1.11-4.26-1.52-1.46-.4-2.91-.7-4.35-.89-1.44-.19-2.82-.29-4.11-.29-1.78,0-3.41.17-4.87.51-1.46.34-2.69.81-3.7,1.42-1.01.61-1.78,1.34-2.34,2.19-.55.85-.83,1.8-.83,2.86,0,1.16.31,2.19.92,3.1.62.91,1.49,1.78,2.63,2.6,1.14.82,2.51,1.62,4.14,2.41,1.62.79,3.45,1.6,5.5,2.43,2.79,1.15,5.29,2.38,7.52,3.68,2.22,1.3,4.13,2.77,5.72,4.4,1.59,1.64,2.81,3.51,3.65,5.61.84,2.1,1.26,4.55,1.26,7.34,0,3.85-.74,7.08-2.21,9.7-1.48,2.62-3.48,4.73-6.01,6.35-2.53,1.62-5.47,2.78-8.83,3.49s-6.9,1.06-10.63,1.06-7.47-.32-10.92-.96c-3.46-.64-6.45-1.6-8.98-2.89Z"/>
    </g>
    <g>
      <path class="cls-1" d="M18.53,212.65c-.96.48-3.27,1.06-6.23,1.06-8.07,0-12.3-4.68-12.3-10.8,0-7.05,5.49-11.39,12.73-11.39,2.87,0,5.08.56,6.06,1.08l-1.09,3.94c-1.12-.49-2.78-.93-4.78-.93-4.3,0-7.59,2.42-7.59,7.01,0,4.02,2.73,6.96,7.64,6.96,1.75,0,3.62-.34,4.73-.82l.83,3.9Z"/>
      <path class="cls-1" d="M42.8,202.46c0,6.68-4.7,11.26-11.7,11.26s-11.2-4.7-11.2-10.88c0-6.59,4.72-11.31,11.55-11.31s11.35,4.67,11.35,10.94ZM25.28,202.69c0,3.98,2.34,7.09,6.08,7.09s6.05-3.06,6.05-7.17c0-3.89-2.24-7.16-6.06-7.16s-6.08,3.22-6.08,7.24Z"/>
      <path class="cls-1" d="M46.19,192.19c1.64-.26,4.16-.48,7.07-.48,3.48,0,5.76.54,7.34,1.73,1.27.96,2.08,2.49,2.08,4.5,0,2.86-2.21,4.69-3.94,5.24v.11c1.5.6,2.37,2.05,2.95,3.9.75,2.44,1.42,5.28,1.85,6.13h-5.16c-.35-.63-.9-2.2-1.61-4.95-.67-2.68-1.65-3.39-3.84-3.42h-1.71v8.37h-5.02v-21.14ZM51.21,201.36h2.28c2.6,0,4.18-1.14,4.18-3.01,0-2-1.55-2.91-3.88-2.91-1.42,0-2.19.09-2.57.17v5.74Z"/>
      <path class="cls-1" d="M80.3,204.39h-8.89v4.86h9.92v4.09h-14.99v-21.43h14.49v4.09h-9.43v4.31h8.89v4.09Z"/>
      <path class="cls-1" d="M92.03,208.09c1.42.75,3.62,1.51,5.99,1.51s3.56-.89,3.56-2.3c0-1.24-1.04-2.02-3.85-2.83-3.79-1.09-6.54-2.94-6.54-6.47,0-3.72,3.33-6.48,8.55-6.48,2.78,0,4.69.51,6.17,1.18l-1.21,3.99c-.93-.41-2.68-1.11-5.06-1.11-2.22,0-3.27.94-3.27,2.02,0,1.39,1.37,1.96,4.31,2.9,4.11,1.32,6.11,3.22,6.11,6.51,0,3.46-2.69,6.7-9.16,6.7-2.66,0-5.35-.74-6.7-1.49l1.11-4.14Z"/>
      <path class="cls-1" d="M132.3,202.46c0,6.68-4.7,11.26-11.7,11.26s-11.2-4.7-11.2-10.88c0-6.59,4.72-11.31,11.55-11.31s11.35,4.67,11.35,10.94ZM114.77,202.69c0,3.98,2.34,7.09,6.08,7.09s6.05-3.06,6.05-7.17c0-3.89-2.24-7.16-6.06-7.16s-6.08,3.22-6.08,7.24Z"/>
      <path class="cls-1" d="M135.69,191.9h14.34v4.09h-9.28v4.71h8.67v4.09h-8.67v8.54h-5.07v-21.43Z"/>
      <path class="cls-1" d="M158.62,196.04h-6.45v-4.14h18.07v4.14h-6.55v17.29h-5.07v-17.29Z"/>
      <path class="cls-1" d="M177.78,213.33l-5.55-21.43h5.48l1.82,8.92c.51,2.58,1.04,5.47,1.41,7.49h.06c.36-2.22.89-4.86,1.46-7.56l1.94-8.84h5.74l1.81,9.24c.48,2.53.84,4.79,1.17,7.02h.06c.36-2.25.87-4.8,1.41-7.4l1.96-8.85h5.21l-6.11,21.43h-5.54l-2.01-9.97c-.45-2.19-.79-4.08-1.06-6.44h-.06c-.36,2.35-.7,4.27-1.23,6.45l-2.25,9.95h-5.71Z"/>
      <path class="cls-1" d="M207.75,207.63l-1.7,5.7h-5.33l7.17-21.43h6.79l7.51,21.43h-5.61l-1.89-5.7h-6.93ZM213.84,203.89l-1.54-4.58c-.42-1.26-.83-2.68-1.2-3.88h-.06c-.34,1.21-.67,2.64-1.05,3.88l-1.45,4.57h5.3Z"/>
      <path class="cls-1" d="M225.21,192.19c1.64-.26,4.16-.48,7.07-.48,3.48,0,5.76.54,7.34,1.73,1.27.96,2.08,2.49,2.08,4.5,0,2.86-2.21,4.69-3.94,5.24v.11c1.5.6,2.37,2.05,2.95,3.9.75,2.44,1.42,5.28,1.85,6.13h-5.16c-.35-.63-.9-2.2-1.61-4.95-.67-2.68-1.65-3.39-3.84-3.42h-1.71v8.37h-5.02v-21.14ZM230.23,201.36h2.28c2.6,0,4.18-1.14,4.18-3.01,0-2-1.55-2.91-3.88-2.91-1.42,0-2.19.09-2.57.17v5.74Z"/>
      <path class="cls-1" d="M259.32,204.39h-8.89v4.86h9.92v4.09h-14.99v-21.43h14.49v4.09h-9.43v4.31h8.89v4.09Z"/>
    </g>
    <g>
      <path class="cls-2" d="M273.89,196.04h-6.45v-4.14h18.07v4.14h-6.55v17.29h-5.07v-17.29Z"/>
      <path class="cls-2" d="M302.14,204.39h-8.89v4.86h9.92v4.09h-14.99v-21.43h14.49v4.09h-9.43v4.31h8.89v4.09Z"/>
      <path class="cls-2" d="M324.17,212.65c-.96.48-3.27,1.06-6.23,1.06-8.07,0-12.3-4.68-12.3-10.8,0-7.05,5.49-11.39,12.73-11.39,2.87,0,5.08.56,6.06,1.08l-1.09,3.94c-1.12-.49-2.78-.93-4.78-.93-4.31,0-7.59,2.42-7.59,7.01,0,4.02,2.73,6.96,7.64,6.96,1.75,0,3.62-.34,4.73-.82l.83,3.9Z"/>
      <path class="cls-2" d="M332.74,191.9v8.13h9.2v-8.13h5.07v21.43h-5.07v-8.97h-9.2v8.97h-5.07v-21.43h5.07Z"/>
      <path class="cls-2" d="M351.39,213.33v-21.43h6.25l4.83,7.68c1.5,2.44,2.82,5.11,3.9,7.72h.09c-.35-3.04-.38-5.64-.38-8.64v-6.75h4.71v21.43h-5.49l-5.04-8.29c-1.46-2.48-3.01-5.24-4.23-7.95h-.12c.16,3.08.19,6.02.19,9.25v6.98h-4.71Z"/>
      <path class="cls-2" d="M397.11,202.46c0,6.68-4.7,11.26-11.7,11.26s-11.2-4.7-11.2-10.88c0-6.59,4.72-11.31,11.55-11.31s11.35,4.67,11.35,10.94ZM379.59,202.69c0,3.98,2.34,7.09,6.08,7.09s6.05-3.06,6.05-7.17c0-3.89-2.24-7.16-6.06-7.16s-6.08,3.22-6.08,7.24Z"/>
      <path class="cls-2" d="M400.5,191.9h5.07v17.19h9.54v4.24h-14.61v-21.43Z"/>
      <path class="cls-2" d="M438.73,202.46c0,6.68-4.7,11.26-11.7,11.26s-11.2-4.7-11.2-10.88c0-6.59,4.72-11.31,11.55-11.31s11.35,4.67,11.35,10.94ZM421.21,202.69c0,3.98,2.34,7.09,6.08,7.09s6.05-3.06,6.05-7.17c0-3.89-2.24-7.16-6.06-7.16s-6.08,3.22-6.08,7.24Z"/>
      <path class="cls-2" d="M462.01,212.2c-1.7.57-4.82,1.35-8.06,1.35-4.4,0-7.55-1.08-9.71-3.13-2.01-1.88-3.12-4.55-3.12-7.52,0-6.9,5.44-11.23,13.28-11.23,3.15,0,5.58.59,6.78,1.16l-1.11,3.98c-1.38-.58-3.03-1.05-5.83-1.05-4.44,0-7.79,2.37-7.79,6.73s3.06,7.02,7.7,7.02c1.33,0,2.42-.16,2.88-.36v-4.29h-3.78v-3.9h8.75v11.24Z"/>
      <path class="cls-2" d="M471.09,191.9v21.43h-5.07v-21.43h5.07Z"/>
      <path class="cls-2" d="M489.45,204.39h-8.89v4.86h9.92v4.09h-14.99v-21.43h14.49v4.09h-9.43v4.31h8.89v4.09Z"/>
    </g>
  </g>
</svg>